<?xml version="1.0" standalone="no"?>
<!DOCTYPE svg PUBLIC "-//W3C//DTD SVG 20010904//EN"
 "http://www.w3.org/TR/2001/REC-SVG-20010904/DTD/svg10.dtd">
<svg version="1.0" xmlns="http://www.w3.org/2000/svg"
 width="79.000000pt" height="79.000000pt" viewBox="0 0 79.000000 79.000000"
 preserveAspectRatio="xMidYMid meet">
<metadata>
Created by potrace 1.14, written by Peter Selinger 2001-2017
</metadata>
<g transform="translate(0.000000,79.000000) scale(0.100000,-0.100000)"
fill="#000000" stroke="none">
<path d="M351 662 c-14 -15 -39 -36 -56 -46 -16 -11 -38 -29 -49 -42 -15 -19
-23 -21 -44 -13 -35 13 -46 -2 -22 -29 17 -18 20 -32 17 -74 l-4 -53 -44 -10
c-40 -10 -44 -15 -56 -54 -7 -24 -14 -71 -17 -105 l-4 -61 136 0 c76 0 194 -4
264 -9 70 -5 147 -5 172 -2 41 7 45 10 59 49 7 23 13 66 12 95 -3 88 1 82 -62
76 -50 -4 -56 -3 -41 9 11 9 14 18 7 28 -13 21 -11 50 4 48 27 -3 37 2 37 21
0 16 -7 20 -30 20 -19 0 -33 7 -39 19 -9 16 -6 21 25 33 34 14 35 16 19 31
-21 22 -28 21 -50 -3 -17 -19 -18 -19 -51 6 -18 14 -36 34 -39 45 -8 24 -38
41 -83 45 -27 3 -40 -3 -61 -24z m-96 -302 c38 -32 5 -91 -52 -94 -34 -2 -39
-6 -49 -36 -12 -36 -27 -43 -32 -15 -7 32 29 154 46 157 30 6 72 0 87 -12z
m200 -32 c-7 -46 -7 -46 -20 -93 -9 -33 -26 -49 -36 -34 -11 19 32 169 49 169
12 0 13 -8 7 -42z m98 -19 c16 -9 18 -17 13 -52 -9 -57 -18 -64 -68 -58 -34 5
-44 10 -46 28 -4 27 33 55 65 47 18 -5 22 -3 17 10 -3 9 -17 16 -31 16 -13 0
-22 4 -19 8 7 12 47 12 69 1z m-182 -9 c22 -12 25 -56 5 -82 -16 -21 -79 -27
-100 -9 -9 8 -16 26 -16 42 0 47 62 75 111 49z m249 0 c0 -7 6 -7 19 0 29 15
43 12 39 -7 -2 -11 -12 -18 -27 -18 -24 0 -30 -7 -50 -59 -9 -21 -15 -26 -23
-18 -15 15 9 112 28 112 8 0 14 -5 14 -10z"/>
<path d="M180 331 c-15 -29 -12 -41 9 -41 24 0 45 25 37 45 -8 21 -33 19 -46
-4z"/>
<path d="M492 247 c-6 -7 -7 -18 -3 -26 6 -10 12 -9 25 4 9 9 14 21 11 26 -8
13 -21 11 -33 -4z"/>
<path d="M301 273 c-12 -23 -12 -35 1 -50 12 -15 42 -2 52 22 14 39 -33 64
-53 28z"/>
<path d="M200 151 c0 -7 -5 -9 -12 -5 -7 5 -8 3 -3 -5 5 -9 10 -10 18 -2 6 6
8 14 4 18 -4 3 -7 1 -7 -6z"/>
<path d="M250 148 c0 -4 4 -8 9 -8 6 0 12 4 15 8 3 5 -1 9 -9 9 -8 0 -15 -4
-15 -9z"/>
<path d="M466 141 c-4 -5 -2 -12 3 -15 5 -4 12 -2 15 3 4 5 2 12 -3 15 -5 4
-12 2 -15 -3z"/>
<path d="M530 124 c0 -8 5 -12 10 -9 6 3 10 10 10 16 0 5 -4 9 -10 9 -5 0 -10
-7 -10 -16z"/>
<path d="M590 132 c0 -4 9 -8 20 -8 11 0 20 4 20 8 0 4 -9 8 -20 8 -11 0 -20
-4 -20 -8z"/>
</g>
</svg>
